<?xml version="1.0" encoding="utf-8"?>
<!-- Generator: Adobe Illustrator 23.1.1, SVG Export Plug-In . SVG Version: 6.00 Build 0)  -->
<svg version="1.1" id="Ebene_1" xmlns="http://www.w3.org/2000/svg" xmlns:xlink="http://www.w3.org/1999/xlink" x="0px" y="0px"
	 viewBox="0 0 100 100" style="enable-background:new 0 0 100 100;" xml:space="preserve">
<image style="display:none;overflow:visible;enable-background:new    ;" width="100" height="100" xlink:href="10758458F2717F74.png" >
</image>
<path d="M88.7,23c1.8,0,3.3,1.5,3.3,3.3v47.5c0,1.8-1.5,3.3-3.3,3.3H11.3C9.5,77,8,75.5,8,73.7V26.3c0-1.8,1.5-3.3,3.3-3.3H88.7
	 M88.7,15H11.3C5,15,0,20,0,26.3v47.5C0,80,5,85,11.3,85h77.5C95,85,100,80,100,73.7V26.3C100,20,95,15,88.7,15L88.7,15z"/>
<polygon points="8,75 33,49 8,30 50,52 92,30 67,50 92,75 62,53 50,61 38,53 "/>
</svg>
