<?xml version="1.0" encoding="utf-8"?>
<!-- Generator: Adobe Illustrator 23.1.1, SVG Export Plug-In . SVG Version: 6.00 Build 0)  -->
<svg version="1.1" id="Ebene_1" xmlns="http://www.w3.org/2000/svg" xmlns:xlink="http://www.w3.org/1999/xlink" x="0px" y="0px"
	 viewBox="0 0 100 100" style="enable-background:new 0 0 100 100;" xml:space="preserve">
<image style="display:none;overflow:visible;enable-background:new    ;" width="100" height="100" xlink:href="6AB18CDA3DD2E805.png" >
</image>
<path d="M82.5,0H37c-1.9,0-3.6,0.6-5,1.5c-1.4-1-3.1-1.5-5-1.5h-8.9c-4.9,0-8.9,4-8.9,8.9v64.4c0,4.9,4,8.9,8.9,8.9h2.2v6.2
	c0,6.4,5.2,11.6,11.6,11.6h4.7c6.4,0,11.6-5.2,11.6-11.6v-6.2h34.4c4.9,0,8.9-4,8.9-8.9V8.9C91.4,4,87.4,0,82.5,0z M18.1,8.9H27
	v64.4h-8.9V8.9z M39.2,88.4c0,1.5-1.2,2.7-2.7,2.7h-4.7c-1.5,0-2.7-1.2-2.7-2.7v-6.5c1-0.3,1.9-0.7,2.8-1.2c1.4,1,3.1,1.5,5,1.5h2.2
	v6.2H39.2z M82.5,73.3H37V8.9h45.6L82.5,73.3L82.5,73.3z"/>
<rect x="45.8" y="54.4" width="10" height="10"/>
<rect x="63.6" y="54.4" width="10" height="10"/>
<rect x="45.8" y="35.6" width="10" height="10"/>
<rect x="63.6" y="35.6" width="10" height="10"/>
<rect x="45.8" y="17.8" width="27.8" height="10"/>
</svg>
